# xmcd
#
# Track frame offsets:
#	150
#	12854
#	32882
#	47174
#	56886
#	71942
#	95936
#	114994
#	134804
#	151699
#	178120
#	200140
#
# Disc length: 2953 seconds
#
# Revision: 0
# Processed by: cddbd v1.5.2PL0 Copyright (c) Steve Scherf et al.
# Submitted via: EasyCDDAExtractor 15.2.5.1
#
DISCID=b80b870c
DTITLE=Various Artist - 블루스 더, Blues (2012) by oreum.com
DYEAR=2012
DGENRE=Blues
TTITLE0=300/30 - 김대중
TTITLE1=그러면 돼! - 강허달림
TTITLE2=한마디만 해줘요 - 로다운 30
TTITLE3=내 방에 침대가 생겼다네 - 하헌진
TTITLE4=그야말로 블루스 - CR태규
TTITLE5=그림자(electric version) - 조이엄
TTITLE6=좋아서 우는 겁니다 - 림지훈
TTITLE7=이 긴 밤 - 김마스타
TTITLE8=카페 작업 블루스 - 깜악귀
TTITLE9=부르지 않는 노래 - 전성기
TTITLE10=개 - 김태춘
TTITLE11=트위터 블루스 - 강산에
EXTD=
EXTT0=
EXTT1=
EXTT2=
EXTT3=
EXTT4=
EXTT5=
EXTT6=
EXTT7=
EXTT8=
EXTT9=
EXTT10=
EXTT11=
PLAYORDER=
